<svg xmlns="http://www.w3.org/2000/svg" xmlns:xlink="http://www.w3.org/1999/xlink" width="1000" zoomAndPan="magnify" viewBox="0 0 750 187.499995" height="250" preserveAspectRatio="xMidYMid meet" version="1.2"><defs><clipPath id="f4bd5ad08c"><path d="M 141 18.699219 L 238 18.699219 L 238 168 L 141 168 Z M 141 18.699219 "/></clipPath><clipPath id="a598a5a45a"><path d="M 194 18.699219 L 238 18.699219 L 238 168 L 194 168 Z M 194 18.699219 "/></clipPath><clipPath id="7cc2f1bbad"><path d="M 149.519531 89.054688 L 224 89.054688 L 224 154.457031 L 149.519531 154.457031 Z M 149.519531 89.054688 "/></clipPath><clipPath id="f7c15e094b"><path d="M 152.472656 99.710938 C 146.433594 109.65625 150.6875 119.335938 156.03125 124.472656 L 187.285156 154.457031 L 217.875 124.582031 C 222.847656 119.054688 224.753906 113.191406 223.695312 106.664062 C 222.230469 97.632812 214.789062 90.625 205.597656 89.625 C 199.960938 89.019531 194.511719 90.613281 190.261719 94.148438 C 189.117188 95.097656 188.09375 96.160156 187.203125 97.316406 C 186.144531 96 184.90625 94.796875 183.503906 93.730469 C 178.617188 90.015625 172.394531 88.539062 166.414062 89.6875 C 160.753906 90.78125 155.671875 94.433594 152.472656 99.710938 Z M 152.472656 99.710938 "/></clipPath></defs><g id="bbef7f8131"><path style=" stroke:none;fill-rule:nonzero;fill:#f25555;fill-opacity:1;" d="M 190.375 167.46875 C 166.8125 168.289062 142.695312 153.308594 138.53125 126.664062 C 135.613281 108 142.019531 87.769531 150.886719 71.496094 C 155.390625 63.226562 160.871094 55.515625 167.125 48.460938 C 162.324219 54.566406 158.054688 61.109375 154.417969 68.023438 C 145.554688 84.882812 139.144531 105.84375 142.0625 125.1875 C 146.015625 151.421875 167.984375 166.734375 190.375 167.46875 Z M 190.375 167.46875 "/><g clip-rule="nonzero" clip-path="url(#f4bd5ad08c)"><path style=" stroke:none;fill-rule:nonzero;fill:#da3831;fill-opacity:1;" d="M 232.695312 139.875 C 232.324219 140.640625 231.925781 141.40625 231.507812 142.179688 C 231.210938 142.71875 230.902344 143.261719 230.578125 143.808594 C 230.265625 144.335938 229.9375 144.867188 229.605469 145.394531 C 222.371094 156.75 211.726562 163.507812 200.230469 166.179688 L 200.226562 166.179688 C 198.308594 166.621094 196.371094 166.953125 194.417969 167.171875 L 194.414062 167.171875 C 193.070312 167.324219 191.71875 167.425781 190.375 167.46875 C 167.984375 166.734375 146.015625 151.421875 142.0625 125.1875 C 139.144531 105.84375 145.554688 84.882812 154.417969 68.023438 C 158.054688 61.109375 162.324219 54.566406 167.125 48.460938 C 175.730469 38.742188 185.789062 30.28125 196.753906 23.339844 C 199.296875 21.730469 201.882812 20.203125 204.511719 18.761719 C 204.554688 18.746094 204.589844 18.722656 204.628906 18.699219 L 204.707031 18.886719 C 204.261719 21.113281 203.988281 23.320312 203.867188 25.507812 C 201.632812 66.023438 252.136719 99.613281 232.695312 139.875 Z M 232.695312 139.875 "/></g><g clip-rule="nonzero" clip-path="url(#a598a5a45a)"><path style=" stroke:none;fill-rule:nonzero;fill:#b71a2d;fill-opacity:1;" d="M 232.695312 139.875 C 232.328125 140.640625 231.929688 141.40625 231.507812 142.179688 C 231.210938 142.71875 230.902344 143.261719 230.578125 143.808594 C 230.265625 144.335938 229.9375 144.867188 229.605469 145.394531 C 222.371094 156.75 211.726562 163.507812 200.230469 166.179688 L 200.226562 166.179688 C 198.308594 166.621094 196.371094 166.953125 194.417969 167.171875 C 205.429688 164.222656 215.570312 157.328125 222.539062 146.019531 C 249.242188 102.699219 194.054688 67.339844 204.511719 18.761719 C 204.554688 18.746094 204.589844 18.722656 204.628906 18.699219 L 204.707031 18.886719 C 204.261719 21.113281 203.988281 23.320312 203.867188 25.507812 C 201.632812 66.023438 252.136719 99.613281 232.695312 139.875 Z M 232.695312 139.875 "/></g><path style=" stroke:none;fill-rule:nonzero;fill:#490c19;fill-opacity:1;" d="M 171.285156 114.765625 C 169.9375 115.90625 169.0625 117.808594 168.90625 119.453125 C 168.511719 123.679688 173.101562 126.988281 176.835938 124.441406 C 178.46875 123.328125 179.378906 121.28125 179.21875 119.3125 C 179.015625 116.828125 176.941406 114.070312 174.339844 113.765625 C 173.175781 113.625 172.136719 114.042969 171.285156 114.765625 Z M 171.285156 114.765625 "/><path style=" stroke:none;fill-rule:nonzero;fill:#ffffff;fill-opacity:1;" d="M 170.953125 115.398438 C 170.535156 115.753906 170.257812 116.347656 170.214844 116.855469 C 170.089844 118.167969 171.519531 119.199219 172.679688 118.40625 C 173.1875 118.058594 173.46875 117.425781 173.421875 116.8125 C 173.359375 116.042969 172.714844 115.183594 171.90625 115.089844 C 171.539062 115.042969 171.21875 115.175781 170.953125 115.398438 Z M 170.953125 115.398438 "/><path style=" stroke:none;fill-rule:nonzero;fill:#490c19;fill-opacity:1;" d="M 204.085938 114.765625 C 205.429688 115.90625 206.304688 117.808594 206.460938 119.453125 C 206.859375 123.679688 202.265625 126.988281 198.535156 124.441406 C 196.898438 123.328125 195.992188 121.28125 196.148438 119.3125 C 196.351562 116.828125 198.429688 114.070312 201.027344 113.765625 C 202.195312 113.625 203.234375 114.042969 204.085938 114.765625 Z M 204.085938 114.765625 "/><path style=" stroke:none;fill-rule:nonzero;fill:#7f0b1f;fill-opacity:1;" d="M 192.992188 132.332031 C 193.152344 135.300781 190.558594 138.140625 187.582031 138.253906 C 184.605469 138.367188 181.796875 135.742188 181.726562 132.769531 C 184.945312 132.898438 189.769531 132.203125 192.992188 132.332031 Z M 192.992188 132.332031 "/><path style=" stroke:none;fill-rule:nonzero;fill:#ffffff;fill-opacity:1;" d="M 197.960938 115.398438 C 197.539062 115.753906 197.265625 116.347656 197.222656 116.855469 C 197.097656 118.167969 198.523438 119.199219 199.6875 118.40625 C 200.195312 118.058594 200.476562 117.425781 200.429688 116.8125 C 200.367188 116.042969 199.722656 115.183594 198.914062 115.089844 C 198.546875 115.042969 198.226562 115.175781 197.960938 115.398438 Z M 197.960938 115.398438 "/><g clip-rule="nonzero" clip-path="url(#7cc2f1bbad)"><g clip-rule="nonzero" clip-path="url(#f7c15e094b)"><path style=" stroke:none;fill-rule:nonzero;fill:#ffffff;fill-opacity:1;" d="M 149.519531 89.308594 L 224.085938 89.308594 L 224.085938 154.457031 L 149.519531 154.457031 Z M 149.519531 89.308594 "/></g></g><g style="fill:#1f2a37;fill-opacity:1;"><g transform="translate(256.084644, 127.652137)"><path style="stroke:none" d="M 9.25 0 L 9.25 -71.125 L 23.296875 -71.125 L 23.296875 -42.078125 L 24.859375 -42.078125 L 48.59375 -71.125 L 63 -71.125 L 63 -69.90625 L 36.828125 -37.546875 L 65.71875 -1.21875 L 65.71875 0 L 49.8125 0 L 24.859375 -30.6875 L 23.296875 -30.6875 L 23.296875 0 Z M 9.25 0 "/></g></g><g style="fill:#1f2a37;fill-opacity:1;"><g transform="translate(321.796647, 127.652137)"><path style="stroke:none" d="M 20.921875 1.015625 C 17.484375 1.015625 14.5 0.382812 11.96875 -0.875 C 9.4375 -2.132812 7.488281 -3.988281 6.125 -6.4375 C 4.769531 -8.894531 4.09375 -11.84375 4.09375 -15.28125 C 4.09375 -18.457031 4.769531 -21.125 6.125 -23.28125 C 7.488281 -25.4375 9.597656 -27.203125 12.453125 -28.578125 C 15.304688 -29.953125 19.035156 -31.015625 23.640625 -31.765625 C 26.847656 -32.285156 29.285156 -32.851562 30.953125 -33.46875 C 32.628906 -34.082031 33.757812 -34.78125 34.34375 -35.5625 C 34.925781 -36.34375 35.21875 -37.332031 35.21875 -38.53125 C 35.21875 -40.25 34.617188 -41.5625 33.421875 -42.46875 C 32.222656 -43.375 30.226562 -43.828125 27.4375 -43.828125 C 24.445312 -43.828125 21.609375 -43.160156 18.921875 -41.828125 C 16.234375 -40.503906 13.898438 -38.753906 11.921875 -36.578125 L 10.9375 -36.578125 L 5.296875 -45.09375 C 8.023438 -48.113281 11.347656 -50.460938 15.265625 -52.140625 C 19.191406 -53.828125 23.472656 -54.671875 28.109375 -54.671875 C 35.210938 -54.671875 40.351562 -53.160156 43.53125 -50.140625 C 46.707031 -47.128906 48.296875 -42.851562 48.296875 -37.3125 L 48.296875 -14.015625 C 48.296875 -11.609375 49.351562 -10.40625 51.46875 -10.40625 C 52.28125 -10.40625 53.070312 -10.550781 53.84375 -10.84375 L 54.53125 -10.65625 L 55.5 -1.265625 C 54.757812 -0.773438 53.722656 -0.375 52.390625 -0.0625 C 51.054688 0.238281 49.597656 0.390625 48.015625 0.390625 C 44.804688 0.390625 42.300781 -0.222656 40.5 -1.453125 C 38.695312 -2.691406 37.40625 -4.625 36.625 -7.25 L 35.609375 -7.34375 C 32.984375 -1.769531 28.085938 1.015625 20.921875 1.015625 Z M 25.203125 -9.046875 C 28.316406 -9.046875 30.804688 -10.09375 32.671875 -12.1875 C 34.535156 -14.28125 35.46875 -17.191406 35.46875 -20.921875 L 35.46875 -26.359375 L 34.53125 -26.5625 C 33.726562 -25.914062 32.664062 -25.375 31.34375 -24.9375 C 30.03125 -24.5 28.144531 -24.066406 25.6875 -23.640625 C 22.769531 -23.148438 20.671875 -22.3125 19.390625 -21.125 C 18.109375 -19.945312 17.46875 -18.269531 17.46875 -16.09375 C 17.46875 -13.789062 18.144531 -12.039062 19.5 -10.84375 C 20.863281 -9.644531 22.765625 -9.046875 25.203125 -9.046875 Z M 25.203125 -9.046875 "/></g></g><g style="fill:#1f2a37;fill-opacity:1;"><g transform="translate(378.36442, 127.652137)"><path style="stroke:none" d="M 34.828125 -71.125 C 46.367188 -71.125 55.179688 -68.140625 61.265625 -62.171875 C 67.347656 -56.203125 70.390625 -47.332031 70.390625 -35.5625 C 70.390625 -23.820312 67.347656 -14.957031 61.265625 -8.96875 C 55.179688 -2.988281 46.367188 0 34.828125 0 L 9.25 0 L 9.25 -71.125 Z M 34 -11.828125 C 41.332031 -11.828125 46.8125 -13.695312 50.4375 -17.4375 C 54.070312 -21.1875 55.890625 -27.226562 55.890625 -35.5625 C 55.890625 -43.894531 54.070312 -49.929688 50.4375 -53.671875 C 46.8125 -57.421875 41.332031 -59.296875 34 -59.296875 L 23.296875 -59.296875 L 23.296875 -11.828125 Z M 34 -11.828125 "/></g></g><g style="fill:#1f2a37;fill-opacity:1;"><g transform="translate(454.388003, 127.652137)"><path style="stroke:none" d="M 24.5625 1.015625 C 18.53125 1.015625 14.078125 -0.628906 11.203125 -3.921875 C 8.335938 -7.210938 6.90625 -11.9375 6.90625 -18.09375 L 6.90625 -53.65625 L 20.375 -53.65625 L 20.375 -19.796875 C 20.375 -16.523438 21.078125 -14.132812 22.484375 -12.625 C 23.898438 -11.113281 26.085938 -10.359375 29.046875 -10.359375 C 32.773438 -10.359375 35.675781 -11.582031 37.75 -14.03125 C 39.820312 -16.476562 40.859375 -20.332031 40.859375 -25.59375 L 40.859375 -53.65625 L 54.34375 -53.65625 L 54.34375 0 L 41.390625 0 L 41.390625 -7.875 L 40.375 -8.125 C 38.65625 -5.039062 36.554688 -2.742188 34.078125 -1.234375 C 31.597656 0.265625 28.425781 1.015625 24.5625 1.015625 Z M 24.5625 1.015625 "/></g></g><g style="fill:#1f2a37;fill-opacity:1;"><g transform="translate(516.452021, 127.652137)"><path style="stroke:none" d="M 27.828125 22.765625 C 18.972656 22.765625 12.4375 21.46875 8.21875 18.875 C 4 16.28125 1.890625 12.664062 1.890625 8.03125 C 1.890625 5.207031 2.789062 2.894531 4.59375 1.09375 C 6.394531 -0.707031 8.984375 -1.914062 12.359375 -2.53125 L 12.359375 -3.546875 C 10.535156 -4.648438 9.226562 -5.875 8.4375 -7.21875 C 7.644531 -8.570312 7.25 -10.140625 7.25 -11.921875 C 7.25 -16.234375 10.050781 -19.132812 15.65625 -20.625 L 15.65625 -21.640625 C 12.769531 -23.296875 10.597656 -25.347656 9.140625 -27.796875 C 7.679688 -30.242188 6.953125 -33.203125 6.953125 -36.671875 C 6.953125 -40.242188 7.769531 -43.382812 9.40625 -46.09375 C 11.050781 -48.800781 13.453125 -50.90625 16.609375 -52.40625 C 19.773438 -53.914062 23.5625 -54.671875 27.96875 -54.671875 C 32.445312 -54.671875 36.015625 -53.894531 38.671875 -52.34375 C 40.328125 -54.738281 41.285156 -57.507812 41.546875 -60.65625 L 42.5625 -61.296875 L 52.25 -58.90625 C 51.957031 -56.34375 51.207031 -54.191406 50 -52.453125 C 48.800781 -50.722656 46.9375 -49.175781 44.40625 -47.8125 L 44.40625 -46.75 C 47.425781 -44.09375 48.9375 -40.378906 48.9375 -35.609375 C 48.9375 -32.296875 48.109375 -29.328125 46.453125 -26.703125 C 44.796875 -24.078125 42.382812 -22 39.21875 -20.46875 C 36.0625 -18.945312 32.3125 -18.1875 27.96875 -18.1875 L 25.921875 -18.234375 C 24.628906 -18.304688 23.722656 -18.34375 23.203125 -18.34375 C 21.972656 -18.34375 21.007812 -18.007812 20.3125 -17.34375 C 19.613281 -16.675781 19.265625 -15.820312 19.265625 -14.78125 C 19.265625 -13.644531 19.71875 -12.757812 20.625 -12.125 C 21.53125 -11.5 22.859375 -11.15625 24.609375 -11.09375 L 36.625 -10.65625 C 48.5 -10.300781 54.4375 -5.191406 54.4375 4.671875 C 54.4375 8.140625 53.550781 11.226562 51.78125 13.9375 C 50.007812 16.644531 47.144531 18.789062 43.1875 20.375 C 39.238281 21.96875 34.117188 22.765625 27.828125 22.765625 Z M 27.96875 -27.625 C 30.5625 -27.625 32.585938 -28.382812 34.046875 -29.90625 C 35.503906 -31.4375 36.234375 -33.613281 36.234375 -36.4375 C 36.234375 -39.257812 35.503906 -41.421875 34.046875 -42.921875 C 32.585938 -44.429688 30.5625 -45.1875 27.96875 -45.1875 C 25.34375 -45.1875 23.316406 -44.429688 21.890625 -42.921875 C 20.460938 -41.421875 19.75 -39.257812 19.75 -36.4375 C 19.75 -33.582031 20.460938 -31.398438 21.890625 -29.890625 C 23.316406 -28.378906 25.34375 -27.625 27.96875 -27.625 Z M 27.828125 12.984375 C 32.429688 12.984375 35.773438 12.332031 37.859375 11.03125 C 39.953125 9.738281 41 8.054688 41 5.984375 C 41 4.296875 40.460938 3.050781 39.390625 2.25 C 38.328125 1.457031 36.628906 1.03125 34.296875 0.96875 L 23.6875 0.484375 C 23.332031 0.484375 23 0.46875 22.6875 0.4375 C 22.382812 0.40625 22.085938 0.390625 21.796875 0.390625 C 19.523438 0.390625 17.796875 0.875 16.609375 1.84375 C 15.429688 2.820312 14.84375 4.171875 14.84375 5.890625 C 14.84375 8.160156 15.925781 9.910156 18.09375 11.140625 C 20.269531 12.367188 23.515625 12.984375 27.828125 12.984375 Z M 27.828125 12.984375 "/></g></g><g style="fill:#1f2a37;fill-opacity:1;"><g transform="translate(571.41464, 127.652137)"><path style="stroke:none" d="M 31.1875 1.015625 C 25.925781 1.015625 21.3125 -0.0625 17.34375 -2.21875 C 13.375 -4.375 10.289062 -7.535156 8.09375 -11.703125 C 5.90625 -15.867188 4.8125 -20.898438 4.8125 -26.796875 C 4.8125 -32.703125 5.90625 -37.742188 8.09375 -41.921875 C 10.289062 -46.109375 13.375 -49.28125 17.34375 -51.4375 C 21.3125 -53.59375 25.925781 -54.671875 31.1875 -54.671875 C 36.4375 -54.671875 41.046875 -53.59375 45.015625 -51.4375 C 48.992188 -49.28125 52.082031 -46.109375 54.28125 -41.921875 C 56.488281 -37.742188 57.59375 -32.703125 57.59375 -26.796875 C 57.59375 -20.898438 56.488281 -15.867188 54.28125 -11.703125 C 52.082031 -7.535156 48.992188 -4.375 45.015625 -2.21875 C 41.046875 -0.0625 36.4375 1.015625 31.1875 1.015625 Z M 31.1875 -10.40625 C 39.519531 -10.40625 43.6875 -15.867188 43.6875 -26.796875 C 43.6875 -32.472656 42.613281 -36.632812 40.46875 -39.28125 C 38.332031 -41.925781 35.238281 -43.25 31.1875 -43.25 C 22.851562 -43.25 18.6875 -37.765625 18.6875 -26.796875 C 18.6875 -15.867188 22.851562 -10.40625 31.1875 -10.40625 Z M 31.1875 -10.40625 "/></g></g></g></svg>